<svg width="131" height="117" viewBox="0 0 131 117" fill="none" xmlns="http://www.w3.org/2000/svg">
<g id="&#236;&#152;&#129;&#236;&#131;&#129;&#236;&#149;&#132;&#236;&#157;&#180;&#236;&#189;&#152;&#237;&#157;&#145;" filter="url(#filter0_d_269_1555)">
<path d="M97.7071 37.4698L83.5404 41.7627V37.4698C83.5404 34.0354 81.2508 33.1768 80.1061 33.1768H27.7323H20.0051C17.601 33.1768 17 35.1801 17 36.1818V81.2576C17 83.3182 19.0034 83.8333 20.0051 83.8333H80.1061C82.5101 83.8333 83.3973 81.5438 83.5404 80.399V75.6768C86.8316 76.5354 94.101 78.5101 96.8485 79.5404C99.596 80.5707 101.141 78.5387 101.571 77.3939V40.0456C101.571 37.6415 98.9949 37.3267 97.7071 37.4698Z" fill="#FF2F24" shape-rendering="crispEdges"/>
<path d="M27.7323 33.1768C26.1582 33.1768 22.4091 33.1768 20.0051 33.1768C17.601 33.1768 17 35.1801 17 36.1818C17 50.3485 17 79.197 17 81.2576C17 83.3182 19.0034 83.8333 20.0051 83.8333C39.037 83.8333 77.702 83.8333 80.1061 83.8333C82.5101 83.8333 83.3973 81.5438 83.5404 80.399V75.6768C86.8317 76.5354 94.101 78.5101 96.8485 79.5404C99.596 80.5707 101.141 78.5387 101.571 77.3939C101.571 65.9462 101.571 42.4496 101.571 40.0456C101.571 37.6415 98.995 37.3267 97.7071 37.4698L83.5404 41.7627V37.4698C83.5404 34.0354 81.2508 33.1768 80.1061 33.1768H27.7323ZM27.7323 33.1768V20.7273C27.7323 19.7256 28.5051 17.7222 31.596 17.7222C34.6869 17.7222 39.1801 17.7222 41.0404 17.7222C41.0404 16.1481 41.899 13 45.3333 13C48.7677 13 65.6532 13 73.6667 13C75.0976 13.1431 77.9596 14.2879 77.9596 17.7222C77.9596 21.1566 75.67 22.3013 74.5253 22.4444H45.3333C44.1886 22.3013 41.7273 21.3283 41.0404 18.5808M41.4697 46.0556C41.6128 45.0539 42.5859 43.4798 45.3333 45.197C48.0808 46.9141 57.9259 53.6397 62.5051 56.7879C63.2205 57.3603 64.2222 58.5051 62.5051 59.7929C60.903 60.9945 49.7694 68.5219 44.4747 72.2424C43.7593 72.5286 42.1566 72.6717 41.4697 70.9545C40.7828 69.2374 41.1835 53.6397 41.4697 46.0556Z" stroke="black" stroke-opacity="0.9" stroke-width="5" shape-rendering="crispEdges"/>
</g>
<defs>
<filter id="filter0_d_269_1555" x="0.5" y="0.5" width="129.571" height="115.833" filterUnits="userSpaceOnUse" color-interpolation-filters="sRGB">
<feFlood flood-opacity="0" result="BackgroundImageFix"/>
<feColorMatrix in="SourceAlpha" type="matrix" values="0 0 0 0 0 0 0 0 0 0 0 0 0 0 0 0 0 0 127 0" result="hardAlpha"/>
<feOffset dx="6" dy="10"/>
<feGaussianBlur stdDeviation="10"/>
<feComposite in2="hardAlpha" operator="out"/>
<feColorMatrix type="matrix" values="0 0 0 0 0 0 0 0 0 0 0 0 0 0 0 0 0 0 0.5 0"/>
<feBlend mode="normal" in2="BackgroundImageFix" result="effect1_dropShadow_269_1555"/>
<feBlend mode="normal" in="SourceGraphic" in2="effect1_dropShadow_269_1555" result="shape"/>
</filter>
</defs>
</svg>
